<!-- icon666.com - MILLIONS OF FREE VECTOR ICONS --><svg version="1.1" id="Layer_1" xmlns="http://www.w3.org/2000/svg" xmlns:xlink="http://www.w3.org/1999/xlink" x="0px" y="0px" viewBox="0 0 512.001 512.001" style="enable-background:new 0 0 512.001 512.001;" xml:space="preserve"><g><g><path d="M510.549,189.855c-0.078-1.218-0.675-2.344-1.639-3.093c-0.965-0.749-2.204-1.045-3.403-0.819l-52.126,9.836l0.012,0.197 l-48.481,3.1l-0.765-11.973l25.596-1.636c11.941-0.763,21.002-11.062,20.239-23.002l-0.147-2.296 c-0.763-11.941-11.062-21.002-23.002-20.239l-68.247,4.362c-11.941,0.763-21.002,11.062-20.239,23.002l0.147,2.296 c0.6,9.389,7.295,17.431,16.485,19.669l-93.693,5.99c-4.497,0.288-7.909,4.166-7.621,8.662l0.796,12.44 c6.66,0.645,20.262,1.965,27.072,2.625c11.711,1.136,21.601,7.713,27.428,16.977l62.35-3.986l-6.597,14.686 c-2.492,5.549-0.086,12.252,5.632,14.821c5.652,2.538,12.285,0.012,14.821-5.632c6.133-13.653,11.512-25.627,17.616-39.216 l0.02,0.32l51.719-3.306l0.012,0.197l52.954,3.119c1.218,0.072,2.407-0.383,3.268-1.247s1.314-2.057,1.236-3.274 C511.603,206.357,510.94,195.986,510.549,189.855z"></path></g></g><g><g><path d="M297.519,434.51l-47.63-105.759c-2.969-6.593-8.798-11.462-15.814-13.211l-33.858-8.437l5.545-21.985l-9.891-0.959 c-17.261-1.674-28.055-14.866-30.157-22.796l-18.348-69.196l34.596,64.887c3.115,5.84,8.944,9.734,15.534,10.374l78.597,7.623 c2.163,0.211,4.469,0.047,6.554-0.456h0.001c7.955-1.923,14.191-8.701,15.026-17.307c1.055-10.864-6.897-20.526-17.765-21.581 l-68.049-6.6l-31.329-58.761l39.337,42.65l3.99,0.387l7.755-30.748c3.764-14.923-5.346-30.071-20.291-33.742l-61.222-15.038 c-14.821-3.641-29.801,5.368-33.532,20.166l-39.344,155.98c0,0,0.214,0.186,24.217,110.601H23.602 C10.567,420.603,0,431.17,0,444.205s10.567,23.603,23.602,23.603h107.123c7.14,0,13.895-3.233,18.376-8.792 c4.48-5.559,6.204-12.847,4.687-19.823l-21.837-100.453l79.601,19.835l42.926,95.318c5.357,11.893,19.336,17.18,31.211,11.829 C297.575,460.369,302.871,446.394,297.519,434.51z"></path></g></g><g><g><circle cx="228.632" cy="90.584" r="46.392"></circle></g></g></svg>